<svg width="290" height="41" viewBox="0 0 290 41" fill="none" xmlns="http://www.w3.org/2000/svg">
<path d="M254.716 1.00299L266.894 6.03259V9.17246L254.716 14.213V10.4989L262.162 7.61343L254.716 4.71704V1.00299Z" fill="url(#paint0_linear_919_3619)"/>
<path d="M19.487 40.9418H10.5725C9.27514 40.9418 8.07225 40.2477 7.42175 39.1211L0.487878 27.1104C-0.162626 25.9838 -0.162626 24.5956 0.487878 23.4691L2.17046 20.5618H7.54531L19.4906 40.9418H19.487Z" fill="url(#paint1_linear_919_3619)"/>
<path d="M15.7107 0H24.6251C25.9225 0 27.1254 0.694106 27.7759 1.82068L34.7098 13.8314C35.3603 14.958 35.3603 16.3462 34.7098 17.4728L33.0272 20.38H27.6523L15.707 0H15.7107Z" fill="url(#paint2_linear_919_3619)"/>
<path d="M17.4404 20.3801H33.0307L27.7758 29.4835C27.1253 30.6101 25.9224 31.3042 24.6251 31.3042H23.6293L17.4441 20.3801H17.4404Z" fill="url(#paint3_linear_919_3619)"/>
<path d="M17.7563 20.5618H2.16602L7.42093 11.4584C8.07144 10.3318 9.27432 9.6377 10.5717 9.6377H11.5674L17.7527 20.5618H17.7563Z" fill="url(#paint4_linear_919_3619)"/>
<path d="M80.151 17.4764V30.2721C80.151 33.6917 79.2171 36.3301 77.3491 38.198C75.4812 40.066 72.8247 40.9999 69.3796 40.9999C67.7151 40.9999 66.2433 40.7419 64.9641 40.2259C63.6849 39.7098 62.6165 38.8776 61.7552 37.7256C60.8939 38.874 59.8291 39.7062 58.5681 40.2259C57.3034 40.7419 55.8098 40.9999 54.0873 40.9999C50.6131 40.9999 47.9565 40.066 46.1177 38.198C44.2788 36.3301 43.3594 33.6881 43.3594 30.2721V17.4764H50.0788V29.7524C50.0788 31.6785 50.4095 33.0921 51.0709 33.997C51.7324 34.9019 52.7644 35.3525 54.1708 35.3525C55.5772 35.3525 56.6711 34.8946 57.3579 33.9752C58.0484 33.0558 58.39 31.6494 58.39 29.7524V17.4764H65.1095V29.7524C65.1095 31.6494 65.4547 33.0558 66.1416 33.9752C66.8321 34.8946 67.8932 35.3525 69.3287 35.3525C70.7642 35.3525 71.7708 34.8983 72.4322 33.997C73.0936 33.0921 73.4243 31.6785 73.4243 29.7524V17.4764H80.1438H80.151Z" fill="#2C3E50"/>
<path d="M101.065 35.0727C101.999 34.7129 102.868 34.146 103.671 33.3719L107.247 37.2495C105.063 39.7498 101.876 40.9963 97.6818 40.9963C95.0689 40.9963 92.7576 40.4875 90.7479 39.4663C88.7383 38.4488 87.1865 37.0315 86.0963 35.2217C85.0061 33.4119 84.4609 31.3587 84.4609 29.0619C84.4609 26.7652 84.9988 24.7482 86.0781 22.9239C87.1538 21.0996 88.6329 19.6787 90.5154 18.6575C92.3978 17.6399 94.5129 17.1275 96.8678 17.1275C99.0773 17.1275 101.091 17.5963 102.9 18.5266C104.71 19.4606 106.153 20.8089 107.229 22.575C108.304 24.3412 108.846 26.4308 108.846 28.8439L91.7001 32.1618C92.187 33.3102 92.9575 34.1715 94.0041 34.7456C95.0507 35.3198 96.3372 35.6069 97.8599 35.6069C99.0664 35.6069 100.135 35.4289 101.069 35.0691L101.065 35.0727ZM92.7285 23.8506C91.6674 24.9408 91.1041 26.449 91.0496 28.3751L102.337 26.1764C102.021 24.9699 101.374 24.0105 100.4 23.291C99.4225 22.575 98.2451 22.2152 96.8678 22.2152C95.1743 22.2152 93.7933 22.7604 92.7322 23.8506H92.7285Z" fill="#2C3E50"/>
<path d="M132.943 18.6175C134.709 19.6096 136.094 21.0015 137.101 22.7967C138.107 24.592 138.609 26.6816 138.609 29.0656C138.609 31.4495 138.107 33.5391 137.101 35.3344C136.094 37.1296 134.709 38.5215 132.943 39.5136C131.177 40.5057 129.218 41 127.063 41C123.876 41 121.448 39.9933 119.784 37.9837V40.6547H113.366V8.68915H120.086V19.9331C121.779 18.0651 124.105 17.1312 127.063 17.1312C129.218 17.1312 131.177 17.6254 132.943 18.6175ZM130.141 33.739C131.246 32.5761 131.798 31.0171 131.798 29.0656C131.798 27.1141 131.246 25.555 130.141 24.3921C129.036 23.2292 127.623 22.6477 125.897 22.6477C124.17 22.6477 122.76 23.2292 121.652 24.3921C120.547 25.555 119.995 27.1141 119.995 29.0656C119.995 31.0171 120.547 32.5761 121.652 33.739C122.757 34.9019 124.17 35.4834 125.897 35.4834C127.623 35.4834 129.033 34.9019 130.141 33.739Z" fill="#2C3E50"/>
<path d="M179.682 19.6932C181.39 21.4012 182.244 23.9669 182.244 27.383V40.6511H175.524V28.4151C175.524 26.5762 175.143 25.2061 174.383 24.3013C173.624 23.3964 172.537 22.9457 171.131 22.9457C169.55 22.9457 168.3 23.4545 167.384 24.4757C166.465 25.4969 166.007 27.0087 166.007 29.022V40.6511H159.287V28.4151C159.287 24.77 157.823 22.9457 154.894 22.9457C153.342 22.9457 152.106 23.4545 151.191 24.4757C150.271 25.4969 149.813 27.0087 149.813 29.022V40.6511H143.094V17.4764H149.512V20.1475C150.373 19.1699 151.427 18.4249 152.677 17.9089C153.927 17.3928 155.297 17.1348 156.791 17.1348C158.426 17.1348 159.905 17.4582 161.228 18.1051C162.547 18.752 163.612 19.6932 164.415 20.9252C165.364 19.7186 166.563 18.7847 168.013 18.1233C169.463 17.4619 171.051 17.1312 172.773 17.1312C175.673 17.1312 177.977 17.9852 179.689 19.6932H179.682Z" fill="#2C3E50"/>
<path d="M212.054 17.4764V40.6511H205.636V37.98C203.972 39.9896 201.559 40.9963 198.401 40.9963C196.217 40.9963 194.243 40.5093 192.477 39.5318C190.711 38.5542 189.326 37.1623 188.32 35.3525C187.313 33.5428 186.812 31.4459 186.812 29.0619C186.812 26.6779 187.313 24.581 188.32 22.7713C189.323 20.9615 190.711 19.5696 192.477 18.592C194.243 17.6145 196.217 17.1275 198.401 17.1275C201.359 17.1275 203.67 18.0615 205.335 19.9294V17.4727H212.054V17.4764ZM203.783 33.739C204.902 32.5761 205.462 31.017 205.462 29.0655C205.462 27.114 204.902 25.555 203.783 24.3921C202.663 23.2292 201.253 22.6477 199.56 22.6477C197.866 22.6477 196.416 23.2292 195.297 24.3921C194.178 25.555 193.618 27.114 193.618 29.0655C193.618 31.017 194.178 32.5761 195.297 33.739C196.416 34.9019 197.837 35.4834 199.56 35.4834C201.283 35.4834 202.663 34.9019 203.783 33.739Z" fill="#2C3E50"/>
<path d="M232.474 39.5317C231.813 40.0187 231.003 40.3857 230.04 40.6292C229.077 40.8727 228.081 40.9963 227.045 40.9963C224.258 40.9963 222.121 40.2913 220.627 38.8849C219.134 37.4785 218.389 35.4107 218.389 32.6814V12.3486H225.108V17.9924H230.839V23.1601H225.108V32.5942C225.108 33.5718 225.352 34.3241 225.842 34.8546C226.329 35.3852 227.034 35.6505 227.954 35.6505C228.989 35.6505 229.905 35.3634 230.712 34.7892L232.478 39.5281L232.474 39.5317Z" fill="#2C3E50"/>
<path d="M245.673 17.9924C247.036 17.4183 248.61 17.1312 250.39 17.1312V23.3346C249.642 23.2764 249.14 23.2474 248.882 23.2474C246.96 23.2474 245.452 23.7852 244.358 24.8645C243.267 25.9402 242.722 27.5574 242.722 29.7124V40.6547H236.003V17.48H242.421V20.54C243.224 19.4207 244.31 18.5739 245.673 17.9997V17.9924Z" fill="#2C3E50"/>
<path d="M254.399 17.4764H261.119V40.6511H254.399V17.4764Z" fill="#2C3E50"/>
<path d="M282.098 40.6511L277.014 33.5427L271.759 40.6511H264.437L273.355 28.9783L264.738 17.4764H272.275L277.185 24.2394L282.225 17.4764H289.377L280.761 28.8075L289.723 40.6547H282.098V40.6511Z" fill="#2C3E50"/>
<path d="M230.839 23.1964V17.9924H225.108V12.3486H218.389V23.1964H230.839Z" fill="url(#paint5_linear_919_3619)"/>
<defs>
<linearGradient id="paint0_linear_919_3619" x1="254.716" y1="7.60979" x2="266.894" y2="7.60979" gradientUnits="userSpaceOnUse">
<stop stop-color="#4BA48C"/>
<stop offset="1" stop-color="#A4D3A4"/>
</linearGradient>
<linearGradient id="paint1_linear_919_3619" x1="4.47812" y1="21.8628" x2="14.0722" y2="43.0859" gradientUnits="userSpaceOnUse">
<stop stop-color="#4BA48C"/>
<stop offset="1" stop-color="#A4D3A4"/>
</linearGradient>
<linearGradient id="paint2_linear_919_3619" x1="30.7195" y1="19.079" x2="21.1255" y2="-2.14412" gradientUnits="userSpaceOnUse">
<stop stop-color="#4BA48C"/>
<stop offset="1" stop-color="#A4D3A4"/>
</linearGradient>
<linearGradient id="paint3_linear_919_3619" x1="23.3531" y1="17.044" x2="29.9926" y2="28.8148" gradientUnits="userSpaceOnUse">
<stop stop-color="#4BA48C"/>
<stop offset="1" stop-color="#A4D3A4"/>
</linearGradient>
<linearGradient id="paint4_linear_919_3619" x1="11.8436" y1="23.8979" x2="5.20412" y2="12.1271" gradientUnits="userSpaceOnUse">
<stop stop-color="#4BA48C"/>
<stop offset="1" stop-color="#A4D3A4"/>
</linearGradient>
<linearGradient id="paint5_linear_919_3619" x1="218.389" y1="17.7744" x2="230.839" y2="17.7744" gradientUnits="userSpaceOnUse">
<stop stop-color="#4BA48C"/>
<stop offset="1" stop-color="#A4D3A4"/>
</linearGradient>
</defs>
</svg>
